<svg width="498.986" height="141.884" viewBox="0 0 132.023 37.54" xmlns="http://www.w3.org/2000/svg"><defs><path id="a" d="M263.353 184.163h113.051v50.056H263.353z"/></defs><path style="fill:#ccd1d9" d="m53.327 223.993-1.391 67.757 129.389-14.406s-10.656-53.351-127.998-53.351z" transform="matrix(.12124 0 0 .13537 0 -15.884)"/><path style="fill:#e6e9ed" d="M42.671 266.666h426.65v85.33H42.671z" transform="matrix(.12124 0 0 .13537 0 -15.884)"/><path style="fill:#ccd1d9" d="M95.998 330.655c-5.891 0-10.671-4.75-10.671-10.656v-10.656c0-5.906 4.78-10.687 10.671-10.687 5.891 0 10.672 4.78 10.672 10.687v10.656c0 5.906-4.781 10.656-10.672 10.656z" transform="matrix(.12124 0 0 .13537 0 -15.884)"/><path style="fill:#da4453" d="M437.32 383.998c-5.891 0-10.655-4.781-10.655-10.656v-10.688c0-5.875 4.765-10.656 10.655-10.656s10.672 4.781 10.672 10.656v10.688c0 5.875-4.781 10.656-10.672 10.656zM394.666 383.998c-5.891 0-10.672-4.781-10.672-10.656v-10.688c0-5.875 4.781-10.656 10.672-10.656 5.891 0 10.655 4.781 10.655 10.656v10.688c0 5.875-4.764 10.656-10.655 10.656zM351.994 383.998c-5.891 0-10.672-4.781-10.672-10.656v-10.688c0-5.875 4.781-10.656 10.672-10.656 5.891 0 10.672 4.781 10.672 10.656v10.688c0 5.875-4.781 10.656-10.672 10.656zM309.323 383.998c-5.891 0-10.656-4.781-10.656-10.656v-10.688c0-5.875 4.766-10.656 10.656-10.656 5.89 0 10.671 4.781 10.671 10.656v10.688c0 5.875-4.781 10.656-10.671 10.656zM266.668 383.998c-5.891 0-10.672-4.781-10.672-10.656v-10.688c0-5.875 4.781-10.656 10.672-10.656 5.891 0 10.656 4.781 10.656 10.656v10.688c0 5.875-4.766 10.656-10.656 10.656zM223.996 383.998c-5.891 0-10.672-4.781-10.672-10.656v-10.688c0-5.875 4.781-10.656 10.672-10.656 5.891 0 10.672 4.781 10.672 10.656v10.688c0 5.875-4.781 10.656-10.672 10.656zM181.325 383.998c-5.891 0-10.656-4.781-10.656-10.656v-10.688c0-5.875 4.766-10.656 10.656-10.656 5.89 0 10.672 4.781 10.672 10.656v10.688c0 5.875-4.781 10.656-10.672 10.656z" transform="matrix(.12124 0 0 .13537 0 -15.884)"/><path style="fill:#ccd1d9" d="M138.67 330.655c-5.891 0-10.672-4.75-10.672-10.656v-10.656c0-5.906 4.781-10.687 10.672-10.687 5.89 0 10.655 4.78 10.655 10.687v10.656a10.64 10.64 0 0 1-10.655 10.656z" transform="matrix(.12124 0 0 .13537 0 -15.884)"/><path style="fill:#f4be8e" d="M53.326 309.346h405.34v47.624H53.326z" transform="matrix(.12124 0 0 .13537 0 -15.884)"/><path style="fill:#ed5564" d="M170.666 266.666h298.65v106.68h-298.65z" transform="matrix(.12124 0 0 .13537 0 -15.884)"/><path style="fill:#ffce54" d="M245.326 266.666h149.31v32.21h-149.31z" transform="matrix(.12124 0 0 .13537 0 -15.884)"/><path style="fill:#ffd2a6" d="M31.999 117.338c-17.64 0-31.999 14.359-31.999 32v245.316h63.999V149.338c0-17.641-14.359-32-32-32zM479.992 202.665c-17.641 0-32 14.359-32 31.999v159.99h64v-159.99c0-17.64-14.359-31.999-32-31.999z" transform="matrix(.12124 0 0 .13537 0 -15.884)"/><text xml:space="preserve" transform="matrix(.5714 0 0 .60342 -82.114 -105.437)" style="font-style:normal;font-variant:normal;font-weight:400;font-stretch:normal;font-size:32px;line-height:.75;font-family:'Liberation Mono';-inkscape-font-specification:'Liberation Mono';white-space:pre;shape-inside:url(#a);fill:#ed5564;fill-opacity:1"><tspan x="263.354" y="204.635"><tspan style="font-family:Kurale;-inkscape-font-specification:Kurale">Hotel </tspan></tspan><tspan x="263.354" y="229.323"><tspan style="font-family:Kurale;-inkscape-font-specification:Kurale">Pomelia</tspan></tspan></text></svg>